<?xml version="1.0" encoding="UTF-8"?>
<svg version="1.1" xmlns="http://www.w3.org/2000/svg" width="32" height="32">
<path d="M0 0 C10.56 0 21.12 0 32 0 C32 10.56 32 21.12 32 32 C21.44 32 10.88 32 0 32 C0 21.44 0 10.88 0 0 Z " fill="#1E1A15" transform="translate(0,0)"/>
<path d="M0 0 C1.26034058 0.00749268 1.26034058 0.00749268 2.54614258 0.01513672 C4.12238403 0.04244873 4.12238403 0.04244873 5.73046875 0.0703125 C9.09234375 0.1115625 12.45421875 0.1528125 15.91796875 0.1953125 C15.91796875 10.7553125 15.91796875 21.3153125 15.91796875 32.1953125 C12.94796875 32.1953125 9.97796875 32.1953125 6.91796875 32.1953125 C6.91796875 31.2053125 6.91796875 30.2153125 6.91796875 29.1953125 C7.90796875 29.1953125 8.89796875 29.1953125 9.91796875 29.1953125 C10.24796875 24.9053125 10.57796875 20.6153125 10.91796875 16.1953125 C9.26796875 16.8553125 7.61796875 17.5153125 5.91796875 18.1953125 C3.66796875 18.0078125 3.66796875 18.0078125 1.91796875 17.1953125 C1.58796875 16.2053125 1.25796875 15.2153125 0.91796875 14.1953125 C-0.07203125 14.1953125 -1.06203125 14.1953125 -2.08203125 14.1953125 C-1.41536458 11.52864583 -0.74869792 8.86197917 -0.08203125 6.1953125 C-0.70851563 6.27910156 -1.335 6.36289063 -1.98046875 6.44921875 C-2.79773437 6.55105469 -3.615 6.65289063 -4.45703125 6.7578125 C-5.26914063 6.86222656 -6.08125 6.96664063 -6.91796875 7.07421875 C-9.08203125 7.1953125 -9.08203125 7.1953125 -11.08203125 6.1953125 C-10.89453125 4.3203125 -10.89453125 4.3203125 -10.08203125 2.1953125 C-6.63139675 0.46377075 -3.83362964 -0.0470384 0 0 Z " fill="#221D19" transform="translate(16.08203125,-0.1953125)"/>
<path d="M0 0 C0.99 0.495 0.99 0.495 2 1 C1.67 5.95 1.34 10.9 1 16 C1.66 16 2.32 16 3 16 C3.33 13.69 3.66 11.38 4 9 C4.99 9.33 5.98 9.66 7 10 C7.33 11.65 7.66 13.3 8 15 C9.051875 15.185625 9.051875 15.185625 10.125 15.375 C13.17656387 16.03838345 16.05340938 16.97211955 19 18 C19.33 20.31 19.66 22.62 20 25 C13.4 25 6.8 25 0 25 C0 16.75 0 8.5 0 0 Z " fill="#444239" transform="translate(0,7)"/>
<path d="M0 0 C0.99 0 1.98 0 3 0 C3 8.25 3 16.5 3 25 C0.03 25 -2.94 25 -6 25 C-6 24.01 -6 23.02 -6 22 C-5.01 22 -4.02 22 -3 22 C-2.94465088 21.40461426 -2.88930176 20.80922852 -2.83227539 20.19580078 C-2.57981135 17.50512785 -2.32123184 14.81507714 -2.0625 12.125 C-1.97548828 11.18785156 -1.88847656 10.25070313 -1.79882812 9.28515625 C-1.66831055 7.94130859 -1.66831055 7.94130859 -1.53515625 6.5703125 C-1.456604 5.74289551 -1.37805176 4.91547852 -1.29711914 4.06298828 C-1 2 -1 2 0 0 Z " fill="#686659" transform="translate(29,7)"/>
<path d="M0 0 C0.88365234 0.00902344 1.76730469 0.01804688 2.67773438 0.02734375 C4.84777359 0.05080363 7.01767247 0.08667135 9.1875 0.125 C5.94256849 4.045 5.94256849 4.045 2.49609375 4.41015625 C1.54863281 4.33667969 0.60117187 4.26320313 -0.375 4.1875 C-3.19960788 3.91226689 -3.19960788 3.91226689 -5.8125 4.125 C-6.84203681 5.09456379 -7.84562261 6.09293987 -8.8125 7.125 C-12.5 6.8125 -12.5 6.8125 -15.8125 6.125 C-15.625 4.25 -15.625 4.25 -14.8125 2.125 C-10.15610349 -0.5787141 -5.2063999 -0.10094437 0 0 Z " fill="#695F53" transform="translate(20.8125,-0.12499999999999999)"/>
<path d="M0 0 C1.32 0 2.64 0 4 0 C4 0.99 4 1.98 4 3 C4.66 3 5.32 3 6 3 C6 2.01 6 1.02 6 0 C9.96 0.33 13.92 0.66 18 1 C18 1.66 18 2.32 18 3 C18.66 3 19.32 3 20 3 C20 3.66 20 4.32 20 5 C13.4 5 6.8 5 0 5 C0 3.35 0 1.7 0 0 Z " fill="#858171" transform="translate(0,27)"/>
<path d="M0 0 C0.66 0 1.32 0 2 0 C2 0.66 2 1.32 2 2 C3.65 2 5.3 2 7 2 C7 4.31 7 6.62 7 9 C6.67 8.01 6.34 7.02 6 6 C4.8553125 6.495 4.8553125 6.495 3.6875 7 C1 8 1 8 -2 8 C-2 6.35 -2 4.7 -2 3 C-1.34 3 -0.68 3 0 3 C0 2.01 0 1.02 0 0 Z " fill="#3C312A" transform="translate(21,10)"/>
<path d="M0 0 C3.63 0 7.26 0 11 0 C10.67 0.66 10.34 1.32 10 2 C9.34 2.144375 8.68 2.28875 8 2.4375 C7.34 2.623125 6.68 2.80875 6 3 C5.67 3.99 5.34 4.98 5 6 C4.01 6 3.02 6 2 6 C1.67 6.66 1.34 7.32 1 8 C0 7 0 7 -0.0625 3.4375 C-0.041875 2.303125 -0.02125 1.16875 0 0 Z " fill="#302F28" transform="translate(0,0)"/>
<path d="M0 0 C0 2.31 0 4.62 0 7 C-0.99 7 -1.98 7 -3 7 C-3.33 7.66 -3.66 8.32 -4 9 C-4 8.01 -4 7.02 -4 6 C-5.65 5.67 -7.3 5.34 -9 5 C-8.01 4.34 -7.02 3.68 -6 3 C-5.319375 2.46375 -4.63875 1.9275 -3.9375 1.375 C-2 0 -2 0 0 0 Z " fill="#434239" transform="translate(32,0)"/>
<path d="M0 0 C-0.33 0.99 -0.66 1.98 -1 3 C-1 2.34 -1 1.68 -1 1 C-2.5778125 1.0309375 -2.5778125 1.0309375 -4.1875 1.0625 C-7.32704904 1.01103198 -9.96883396 0.73482813 -13 0 C-13 0.99 -13 1.98 -13 3 C-13.66 3 -14.32 3 -15 3 C-15 2.01 -15 1.02 -15 0 C-16.32 -0.33 -17.64 -0.66 -19 -1 C-16.95999027 -1.22397733 -14.91783811 -1.42848537 -12.875 -1.625 C-11.73804688 -1.74101562 -10.60109375 -1.85703125 -9.4296875 -1.9765625 C-5.83488201 -2.00112837 -3.319329 -1.32167811 0 0 Z " fill="#636054" transform="translate(19,27)"/>
<path d="M0 0 C1.9453125 -0.29296875 1.9453125 -0.29296875 4.125 -0.1875 C5.40375 -0.125625 6.6825 -0.06375 8 0 C7.34 1.98 6.68 3.96 6 6 C5.01 5.67 4.02 5.34 3 5 C3 4.01 3 3.02 3 2 C1.35 2.33 -0.3 2.66 -2 3 C-1.34 2.01 -0.68 1.02 0 0 Z " fill="#352B24" transform="translate(15,3)"/>
<path d="M0 0 C-0.33 1.98 -0.66 3.96 -1 6 C-3.31 5.67 -5.62 5.34 -8 5 C-7.8125 3.125 -7.8125 3.125 -7 1 C-2.66666667 -1.33333333 -2.66666667 -1.33333333 0 0 Z " fill="#5B5449" transform="translate(13,1)"/>
<path d="M0 0 C0.33 0 0.66 0 1 0 C0.67 3.3 0.34 6.6 0 10 C-0.99 10 -1.98 10 -3 10 C-3 10.99 -3 11.98 -3 13 C-3.99 13 -4.98 13 -6 13 C-6.33 11.68 -6.66 10.36 -7 9 C-5.02 9 -3.04 9 -1 9 C-0.67 6.03 -0.34 3.06 0 0 Z " fill="#393831" transform="translate(26,19)"/>
<path d="M0 0 C0.99 0 1.98 0 3 0 C3 1.65 3 3.3 3 5 C0.36 5 -2.28 5 -5 5 C-5 4.34 -5 3.68 -5 3 C-3.35 2.67 -1.7 2.34 0 2 C0 1.34 0 0.68 0 0 Z " fill="#888475" transform="translate(29,27)"/>
<path d="M0 0 C1.32 0 2.64 0 4 0 C4 0.99 4 1.98 4 3 C4.99 3.33 5.98 3.66 7 4 C6 5 6 5 2.9375 5.0625 C1.4834375 5.0315625 1.4834375 5.0315625 0 5 C0 3.35 0 1.7 0 0 Z " fill="#888474" transform="translate(0,27)"/>
<path d="M0 0 C1.66666667 0 3.33333333 0 5 0 C5 0.99 5 1.98 5 3 C4.01 3 3.02 3 2 3 C2 3.66 2 4.32 2 5 C1.195625 5.12375 0.39125 5.2475 -0.4375 5.375 C-1.7059375 5.684375 -1.7059375 5.684375 -3 6 C-3.33 6.66 -3.66 7.32 -4 8 C-4 7.01 -4 6.02 -4 5 C-3.01 5 -2.02 5 -1 5 C-0.67 3.35 -0.34 1.7 0 0 Z " fill="#5E5A50" transform="translate(27,24)"/>
<path d="M0 0 C2.31 0 4.62 0 7 0 C7 0.66 7 1.32 7 2 C6.34 2 5.68 2 5 2 C4.67 3.32 4.34 4.64 4 6 C3.67 5.01 3.34 4.02 3 3 C2.01 3 1.02 3 0 3 C0 2.01 0 1.02 0 0 Z " fill="#2F251F" transform="translate(14,11)"/>
<path d="M0 0 C0.99 0 1.98 0 3 0 C3 2.64 3 5.28 3 8 C2.01 7.67 1.02 7.34 0 7 C0 4.69 0 2.38 0 0 Z " fill="#878474" transform="translate(29,7)"/>
<path d="M0 0 C2.97 0.33 5.94 0.66 9 1 C9 1.66 9 2.32 9 3 C9.66 3 10.32 3 11 3 C10.67 3.66 10.34 4.32 10 5 C8.35 4.67 6.7 4.34 5 4 C5 3.34 5 2.68 5 2 C3.35 2 1.7 2 0 2 C0 1.34 0 0.68 0 0 Z " fill="#787467" transform="translate(9,27)"/>
<path d="M0 0 C0.66 0 1.32 0 2 0 C2 2.31 2 4.62 2 7 C0.02 7.99 0.02 7.99 -2 9 C-2 7.35 -2 5.7 -2 4 C-1.01 4 -0.02 4 1 4 C0.67 2.68 0.34 1.36 0 0 Z " fill="#858273" transform="translate(30,17)"/>
<path d="M0 0 C0.33 0 0.66 0 1 0 C1 1.65 1 3.3 1 5 C-0.98 5 -2.96 5 -5 5 C-5 4.01 -5 3.02 -5 2 C-3.68 2 -2.36 2 -1 2 C-0.67 1.34 -0.34 0.68 0 0 Z " fill="#23221D" transform="translate(24,23)"/>
<path d="M0 0 C2.475 0.99 2.475 0.99 5 2 C5 3.32 5 4.64 5 6 C4.34 6 3.68 6 3 6 C3 5.34 3 4.68 3 4 C2.01 4 1.02 4 0 4 C0 2.68 0 1.36 0 0 Z " fill="#181411" transform="translate(22,5)"/>
<path d="M0 0 C-1.75 1.5625 -1.75 1.5625 -4 3 C-6.1875 2.8125 -6.1875 2.8125 -8 2 C-8.33 1.34 -8.66 0.68 -9 0 C-2.25 -1.125 -2.25 -1.125 0 0 Z " fill="#766F62" transform="translate(30,1)"/>
</svg>
